<?xml version="1.0" encoding="UTF-8"?>
<svg width="216px" height="36px" viewBox="0 0 216 36" version="1.1" xmlns="http://www.w3.org/2000/svg" xmlns:xlink="http://www.w3.org/1999/xlink">
    <!-- Generator: Sketch 55.1 (78136) - https://sketchapp.com -->
    <title>create-with-stackbit</title>
    <desc>Created with Sketch.</desc>
    <defs>
        <linearGradient x1="50%" y1="100%" x2="50%" y2="3.061617e-15%" id="linearGradient-1">
            <stop stop-color="#4F58FD" offset="0%"></stop>
            <stop stop-color="#149BF3" offset="100%"></stop>
        </linearGradient>
        <path d="M22.2412433,11.5151682 L12.6060893,16.7786881 L2.77861686,11.5151682 C2.41321182,11.3076459 1.93241571,11.4585712 1.74009727,11.8170188 C1.52854698,12.1754664 1.68240174,12.647108 2.04780678,12.8357646 L12.2406842,18.3068068 C12.4714664,18.4388664 12.759944,18.4388664 12.9907262,18.3068068 L22.9912852,12.8357646 C23.3566902,12.6282423 23.4913131,12.1754664 23.2797629,11.8170188 C23.0682126,11.4397055 22.6066483,11.3076459 22.2412433,11.5151682 Z M3.97099121,8.02502059 L12.6060893,3.23314226 L22.2220114,8.68531878 C22.5874165,8.89284107 23.0682126,8.76078143 23.2797629,8.40233384 C23.4913131,8.04388625 23.3566902,7.57224468 22.9912852,7.36472239 L12.9907262,1.70502358 C12.759944,1.57296394 12.4714664,1.57296394 12.2214524,1.70502358 L2.02857493,7.36472239 C1.50931514,7.64770733 1.50931514,8.38346818 2.02857493,8.68531878 L12.2214524,14.3450176 C12.5868574,14.5525399 13.0676535,14.4204802 13.2792038,14.0620327 C13.4907541,13.7035851 13.3561312,13.2319435 12.9907262,13.0244212 L3.97099121,8.02502059 Z M0.00923128525,11.9868098 L0.00923128525,8.21367721 C-0.0676960918,7.34585673 0.336172638,6.45917058 1.22083747,5.96866335 L11.4137149,0.308964534 C12.1637569,-0.106080046 13.0676535,-0.106080046 13.7984636,0.327830196 L23.7990226,5.98752901 C24.625992,6.45917058 25.0683244,7.34585673 24.991397,8.21367721 L24.991397,11.9868098 C25.0683244,12.8734959 24.6067601,13.7790477 23.760559,14.2318236 L13.7599999,19.7028658 C13.0291899,20.0990447 12.1637569,20.0990447 11.4329468,19.7028658 L1.24006932,14.2318236 C0.393868171,13.7790477 -0.0484642476,12.8923616 0.00923128525,11.9868098 Z" id="path-2"></path>
    </defs>
    <g id="Page-1" stroke="none" stroke-width="1" fill="none" fill-rule="evenodd">
        <g id="create-with-stackbit">
            <rect id="button" fill="url(#linearGradient-1)" x="0" y="0" width="216" height="36" rx="18"></rect>
            <path d="M65.1190872,23 C63.6987002,23 62.4904361,22.5055679 61.4942587,21.5166889 C60.4980812,20.5278099 60,19.2158515 60,17.5807744 C60,15.9554881 60.5052307,14.6435297 61.5157074,13.6448598 C62.526184,12.6461899 63.7225323,12.1468625 65.104788,12.1468625 C66.3249862,12.1468625 67.3282982,12.4650613 68.1147541,13.1014686 C68.90121,13.7378759 69.4183565,14.5456115 69.6662093,15.5246996 L68.050408,16.082777 C67.8883505,15.4072062 67.5594738,14.8589251 67.0637683,14.4379172 C66.5680628,14.0169093 65.9150759,13.8064085 65.104788,13.8064085 C64.1991722,13.8064085 63.4151113,14.1368458 62.7525818,14.7977303 C62.0900523,15.4586148 61.7587925,16.3862869 61.7587925,17.5807744 C61.7587925,18.7458892 62.0876691,19.6588752 62.7454322,20.3197597 C63.4031953,20.9806442 64.1944057,21.3110814 65.1190872,21.3110814 C65.9103094,21.3110814 66.5632963,21.0907899 67.0780675,20.6502003 C67.5928386,20.2096106 67.9455468,19.6662249 68.1362028,19.0200267 L69.7091067,19.5487316 C69.4612539,20.5180289 68.939341,21.3355552 68.1433524,22.0013351 C67.3473637,22.667115 66.3392854,23 65.1190872,23 Z M74.9759515,15.5834446 L74.9759515,17.3164219 C74.7852955,17.2870493 74.604175,17.2723632 74.4325847,17.2723632 C73.1837881,17.2723632 72.5593991,17.9724007 72.5593991,19.3724967 L72.5593991,22.7797063 L70.9007005,22.7797063 L70.9007005,15.6275033 L72.5165018,15.6275033 L72.5165018,16.7730307 C72.6785593,16.3911863 72.9407074,16.0901213 73.3029537,15.8698264 C73.6652,15.6495316 74.0751042,15.5393858 74.5326786,15.5393858 C74.6852033,15.5393858 74.8329595,15.5540719 74.9759515,15.5834446 Z M77.2113815,18.4178905 L80.6288727,18.4178905 C80.6098071,17.96751 80.4549014,17.5905667 80.1641511,17.2870494 C79.8734007,16.9835321 79.4563471,16.8317757 78.9129775,16.8317757 C78.417272,16.8317757 78.0169005,16.9908751 77.7118509,17.3090788 C77.4068014,17.6272824 77.2399799,17.9968826 77.2113815,18.4178905 Z M80.8147613,20.2830441 L82.2160757,20.7383178 C82.0158869,21.3943068 81.6417302,21.9352449 81.0935943,22.3611482 C80.5454584,22.7870515 79.871023,23 79.0702679,23 C78.0788569,23 77.2376,22.6524289 76.5464722,21.9572764 C75.8553443,21.2621238 75.5097855,20.332004 75.5097855,19.1668892 C75.5097855,18.0703105 75.8458116,17.1695629 76.5178739,16.4646195 C77.1899362,15.759676 77.9835298,15.4072096 78.8986784,15.4072096 C79.9663518,15.4072096 80.8004592,15.7425423 81.4010255,16.4132176 C82.0015918,17.083893 82.3018704,17.9870882 82.3018704,19.1228304 C82.3018704,19.4263478 82.2875715,19.6074763 82.2589731,19.6662216 L77.1684841,19.6662216 C77.1875497,20.2047201 77.380586,20.6501985 77.7475988,21.0026702 C78.1146115,21.3551419 78.5554968,21.5313752 79.0702679,21.5313752 C79.966351,21.5313752 80.547843,21.115269 80.8147613,20.2830441 Z M83.2217809,20.8411215 C83.2217809,20.2340869 83.4148172,19.7469978 83.8008955,19.3798398 C84.1869738,19.0126817 84.6945877,18.7801518 85.3237524,18.682243 L87.1111432,18.4032043 C87.454324,18.3542499 87.6259117,18.182912 87.6259117,17.8891856 C87.6259117,17.5660865 87.5162862,17.3041844 87.2970318,17.1034713 C87.0777775,16.9027582 86.7489009,16.8024032 86.3103921,16.8024032 C85.890949,16.8024032 85.5573061,16.9223397 85.3094533,17.1622163 C85.0616006,17.4020929 84.9186107,17.7129487 84.8804795,18.0947931 L83.3647722,17.7423231 C83.4315017,17.0961249 83.7317804,16.5453961 84.2656171,16.0901202 C84.7994538,15.6348442 85.4762724,15.4072096 86.296093,15.4072096 C87.3065697,15.4072096 88.0524999,15.6568733 88.5339063,16.1562083 C89.0153126,16.6555432 89.2560121,17.2968363 89.2560121,18.0801068 L89.2560121,21.6341789 C89.2560121,22.1041412 89.2846101,22.4859798 89.3418069,22.7797063 L87.7975013,22.7797063 C87.7498373,22.6328431 87.7260056,22.3293303 87.7260056,21.8691589 C87.2684313,22.6230567 86.5534821,23 85.5811367,23 C84.8757096,23 84.3061335,22.7870515 83.8723911,22.3611482 C83.4386488,21.9352449 83.2217809,21.4285744 83.2217809,20.8411215 Z M85.8957175,21.6635514 C86.4104886,21.6635514 86.8275423,21.5191381 87.146891,21.2303071 C87.4662398,20.9414761 87.6259117,20.4690732 87.6259117,19.8130841 L87.6259117,19.4899866 L85.8099227,19.7690254 C85.1902908,19.8767251 84.8804795,20.1998193 84.8804795,20.7383178 C84.8804795,20.9928807 84.9710398,21.2107245 85.1521629,21.3918558 C85.3332861,21.5729871 85.5811351,21.6635514 85.8957175,21.6635514 Z M93.0929443,13.4392523 L93.0929443,15.6275033 L94.5371561,15.6275033 L94.5371561,17.1401869 L93.0929443,17.1401869 L93.0929443,20.459279 C93.0929443,20.7725872 93.1644392,21.0002218 93.3074312,21.1421896 C93.4504232,21.2841574 93.6744406,21.3551402 93.9794901,21.3551402 C94.1701461,21.3551402 94.3607992,21.3355587 94.5514552,21.2963952 L94.5514552,22.706275 C94.3036024,22.8139747 93.9651932,22.8678238 93.5362172,22.8678238 C92.8879869,22.8678238 92.3779899,22.6793521 92.0062107,22.3024032 C91.6344316,21.9254543 91.4485448,21.4040977 91.4485448,20.7383178 L91.4485448,17.1401869 L90.1616235,17.1401869 L90.1616235,15.6275033 L90.5191016,15.6275033 C90.8718152,15.6275033 91.1387295,15.5247006 91.3198527,15.3190921 C91.5009758,15.1134836 91.5915361,14.8442384 91.5915361,14.5113485 L91.5915361,13.4392523 L93.0929443,13.4392523 Z M97.0871669,18.4178905 L100.504658,18.4178905 C100.485592,17.96751 100.330687,17.5905667 100.039936,17.2870494 C99.7491861,16.9835321 99.3321324,16.8317757 98.7887629,16.8317757 C98.2930574,16.8317757 97.8926859,16.9908751 97.5876363,17.3090788 C97.2825868,17.6272824 97.1157653,17.9968826 97.0871669,18.4178905 Z M100.690547,20.2830441 L102.091861,20.7383178 C101.891672,21.3943068 101.517516,21.9352449 100.96938,22.3611482 C100.421244,22.7870515 99.7468084,23 98.9460533,23 C97.9546423,23 97.1133854,22.6524289 96.4222575,21.9572764 C95.7311296,21.2621238 95.3855709,20.332004 95.3855709,19.1668892 C95.3855709,18.0703105 95.721597,17.1695629 96.3936593,16.4646195 C97.0657216,15.759676 97.8593151,15.4072096 98.7744638,15.4072096 C99.8421372,15.4072096 100.676245,15.7425423 101.276811,16.4132176 C101.877377,17.083893 102.177656,17.9870882 102.177656,19.1228304 C102.177656,19.4263478 102.163357,19.6074763 102.134758,19.6662216 L97.0442695,19.6662216 C97.0633351,20.2047201 97.2563714,20.6501985 97.6233841,21.0026702 C97.9903969,21.3551419 98.4312822,21.5313752 98.9460533,21.5313752 C99.8421364,21.5313752 100.423628,21.115269 100.690547,20.2830441 Z M116.357623,20.0333778 L118.345201,12.3671562 L120.118293,12.3671562 L117.272767,22.7797063 L115.499675,22.7797063 L113.040225,14.9078772 L110.580776,22.7797063 L108.821983,22.7797063 L105.947859,12.3671562 L107.749549,12.3671562 L109.780025,19.9746328 L112.153679,12.3671562 L113.94107,12.3671562 L116.357623,20.0333778 Z M122.782697,22.7797063 L121.138297,22.7797063 L121.138297,15.6275033 L122.782697,15.6275033 L122.782697,22.7797063 Z M121.195494,13.894526 C120.985772,13.6791266 120.880913,13.4196722 120.880913,13.1161549 C120.880913,12.8126376 120.985772,12.5507354 121.195494,12.3304406 C121.405215,12.1101458 121.657831,12 121.953347,12 C122.258397,12 122.515779,12.1076981 122.7255,12.3230975 C122.935222,12.5384968 123.040081,12.8028467 123.040081,13.1161549 C123.040081,13.4196722 122.935222,13.6791266 122.7255,13.894526 C122.515779,14.1099254 122.258397,14.2176235 121.953347,14.2176235 C121.657831,14.2176235 121.405215,14.1099254 121.195494,13.894526 Z M126.791218,13.4392523 L126.791218,15.6275033 L128.23543,15.6275033 L128.23543,17.1401869 L126.791218,17.1401869 L126.791218,20.459279 C126.791218,20.7725872 126.862713,21.0002218 127.005705,21.1421896 C127.148697,21.2841574 127.372715,21.3551402 127.677764,21.3551402 C127.86842,21.3551402 128.059073,21.3355587 128.249729,21.2963952 L128.249729,22.706275 C128.001876,22.8139747 127.663467,22.8678238 127.234491,22.8678238 C126.586261,22.8678238 126.076264,22.6793521 125.704485,22.3024032 C125.332706,21.9254543 125.146819,21.4040977 125.146819,20.7383178 L125.146819,17.1401869 L123.859897,17.1401869 L123.859897,15.6275033 L124.217376,15.6275033 C124.570089,15.6275033 124.837003,15.5247006 125.018127,15.3190921 C125.19925,15.1134836 125.28981,14.8442384 125.28981,14.5113485 L125.28981,13.4392523 L126.791218,13.4392523 Z M131.157218,18.5794393 L131.157218,22.7797063 L129.49852,22.7797063 L129.49852,12.1468625 L131.157218,12.1468625 L131.157218,16.317757 C131.60526,15.7205133 132.267779,15.4218959 133.144797,15.4218959 C133.964617,15.4218959 134.593773,15.6862457 135.032281,16.2149533 C135.47079,16.7436609 135.690041,17.4241169 135.690041,18.2563418 L135.690041,22.7797063 L134.031343,22.7797063 L134.031343,18.5500668 C134.031343,18.0703136 133.916951,17.6860273 133.688164,17.3971963 C133.459376,17.1083653 133.097135,16.9639519 132.60143,16.9639519 C132.162921,16.9639519 131.817362,17.1157083 131.564743,17.4192256 C131.312124,17.722743 131.176284,18.109477 131.157218,18.5794393 Z M147.582148,14.8050734 L146.037842,15.3044059 C145.971113,14.9029797 145.775693,14.5358272 145.451578,14.2029372 C145.127463,13.8700473 144.660363,13.7036048 144.050264,13.7036048 C143.545025,13.7036048 143.127972,13.8504658 142.79909,14.1441923 C142.470209,14.4379187 142.30577,14.7903851 142.30577,15.2016021 C142.30577,15.9163365 142.701375,16.3618149 143.492598,16.5380507 L144.951109,16.8464619 C145.828126,17.0226978 146.504945,17.3800596 146.981584,17.9185581 C147.458224,18.4570565 147.696541,19.0983496 147.696541,19.8424566 C147.696541,20.7040542 147.374814,21.4457023 146.73135,22.0674232 C146.087886,22.6891442 145.213265,23 144.10746,23 C142.91586,23 141.986426,22.6793535 141.31913,22.0380507 C140.651835,21.396748 140.275295,20.6502045 140.1895,19.7983979 L141.791002,19.3284379 C141.848198,19.9158908 142.076982,20.4103229 142.47736,20.811749 C142.877737,21.2131751 143.421099,21.4138852 144.10746,21.4138852 C144.698494,21.4138852 145.153678,21.2792626 145.473027,21.0100134 C145.792375,20.7407641 145.952047,20.3956407 145.952047,19.9746328 C145.952047,19.631952 145.832889,19.3357823 145.594569,19.0861148 C145.356249,18.8364473 145.022606,18.6626618 144.59363,18.564753 L143.163718,18.2563418 C142.372496,18.0898968 141.745723,17.7521165 141.283383,17.2429907 C140.821042,16.7338648 140.589875,16.0974671 140.589875,15.3337784 C140.589875,14.4623899 140.928284,13.7133988 141.605113,13.0867824 C142.281942,12.460166 143.092217,12.1468625 144.035964,12.1468625 C145.113171,12.1468625 145.937745,12.41366 146.509713,12.947263 C147.081681,13.480866 147.439156,14.10013 147.582148,14.8050734 Z M151.175995,13.4392523 L151.175995,15.6275033 L152.620207,15.6275033 L152.620207,17.1401869 L151.175995,17.1401869 L151.175995,20.459279 C151.175995,20.7725872 151.24749,21.0002218 151.390482,21.1421896 C151.533474,21.2841574 151.757491,21.3551402 152.062541,21.3551402 C152.253197,21.3551402 152.44385,21.3355587 152.634506,21.2963952 L152.634506,22.706275 C152.386653,22.8139747 152.048244,22.8678238 151.619268,22.8678238 C150.971037,22.8678238 150.46104,22.6793521 150.089261,22.3024032 C149.717482,21.9254543 149.531595,21.4040977 149.531595,20.7383178 L149.531595,17.1401869 L148.244674,17.1401869 L148.244674,15.6275033 L148.602152,15.6275033 C148.954866,15.6275033 149.22178,15.5247006 149.402903,15.3190921 C149.584026,15.1134836 149.674587,14.8442384 149.674587,14.5113485 L149.674587,13.4392523 L151.175995,13.4392523 Z M153.668809,20.8411215 C153.668809,20.2340869 153.861845,19.7469978 154.247924,19.3798398 C154.634002,19.0126817 155.141616,18.7801518 155.770781,18.682243 L157.558171,18.4032043 C157.901352,18.3542499 158.07294,18.182912 158.07294,17.8891856 C158.07294,17.5660865 157.963314,17.3041844 157.74406,17.1034713 C157.524806,16.9027582 157.195929,16.8024032 156.75742,16.8024032 C156.337977,16.8024032 156.004334,16.9223397 155.756482,17.1622163 C155.508629,17.4020929 155.365639,17.7129487 155.327508,18.0947931 L153.8118,17.7423231 C153.87853,17.0961249 154.178809,16.5453961 154.712645,16.0901202 C155.246482,15.6348442 155.923301,15.4072096 156.743121,15.4072096 C157.753598,15.4072096 158.499528,15.6568733 158.980934,16.1562083 C159.462341,16.6555432 159.70304,17.2968363 159.70304,18.0801068 L159.70304,21.6341789 C159.70304,22.1041412 159.731638,22.4859798 159.788835,22.7797063 L158.24453,22.7797063 C158.196866,22.6328431 158.173034,22.3293303 158.173034,21.8691589 C157.71546,22.6230567 157.00051,23 156.028165,23 C155.322738,23 154.753162,22.7870515 154.319419,22.3611482 C153.885677,21.9352449 153.668809,21.4285744 153.668809,20.8411215 Z M156.342746,21.6635514 C156.857517,21.6635514 157.274571,21.5191381 157.593919,21.2303071 C157.913268,20.9414761 158.07294,20.4690732 158.07294,19.8130841 L158.07294,19.4899866 L156.256951,19.7690254 C155.637319,19.8767251 155.327508,20.1998193 155.327508,20.7383178 C155.327508,20.9928807 155.418068,21.2107245 155.599191,21.3918558 C155.780314,21.5729871 156.028163,21.6635514 156.342746,21.6635514 Z M164.483715,16.9786382 C163.949878,16.9786382 163.497077,17.1769006 163.125298,17.5734312 C162.753519,17.9699619 162.567632,18.5109 162.567632,19.1962617 C162.567632,19.8914142 162.755902,20.4396954 163.132447,20.8411215 C163.508993,21.2425476 163.968944,21.4432577 164.512313,21.4432577 C164.998486,21.4432577 165.386942,21.3086351 165.677692,21.0393858 C165.968442,20.7701366 166.161479,20.4641762 166.256807,20.1214953 L167.715317,20.6648865 C167.524661,21.3012938 167.155271,21.8495749 166.607135,22.3097463 C166.058999,22.7699177 165.360732,23 164.512313,23 C163.492304,23 162.636748,22.6377428 161.94562,21.9132176 C161.254492,21.1886924 160.908933,20.2830495 160.908933,19.1962617 C160.908933,18.099683 161.249726,17.1940401 161.931321,16.4793057 C162.612916,15.7645714 163.458939,15.4072096 164.469416,15.4072096 C165.3369,15.4072096 166.0447,15.6372919 166.592836,16.0974633 C167.140972,16.5576347 167.496063,17.1108112 167.658121,17.7570093 L166.171012,18.3150868 C166.075684,17.9430333 165.89218,17.6272821 165.620495,17.3678238 C165.348811,17.1083654 164.969888,16.9786382 164.483715,16.9786382 Z M175.47021,15.6275033 L172.610385,18.6528705 L175.527407,22.7797063 L173.496931,22.7797063 L171.452156,19.8571429 L170.594208,20.7823765 L170.594208,22.7797063 L168.949809,22.7797063 L168.949809,12.1468625 L170.594208,12.1468625 L170.594208,18.5206943 L173.268145,15.6275033 L175.47021,15.6275033 Z M178.106016,22.7797063 L176.490214,22.7797063 L176.490214,12.1468625 L178.120315,12.1468625 L178.120315,16.5086782 C178.291905,16.2051609 178.573119,15.9506018 178.963963,15.7449933 C179.354808,15.5393848 179.802843,15.4365821 180.308081,15.4365821 C181.318558,15.4365821 182.107385,15.7866009 182.674587,16.4866489 C183.241788,17.1866969 183.525385,18.0801014 183.525385,19.1668892 C183.525385,20.2732588 183.227489,21.1813494 182.631689,21.8911883 C182.035889,22.6010271 181.242296,22.9559413 180.250885,22.9559413 C179.259474,22.9559413 178.544524,22.578998 178.106016,21.8251001 L178.106016,22.7797063 Z M181.323319,20.8411215 C181.676033,20.4299045 181.852387,19.876728 181.852387,19.1815754 C181.852387,18.4864229 181.680797,17.9405894 181.337618,17.5440587 C180.994438,17.1475281 180.541636,16.9492657 179.979201,16.9492657 C179.435832,16.9492657 178.987797,17.1475281 178.635083,17.5440587 C178.28237,17.9405894 178.106016,18.4864229 178.106016,19.1815754 C178.106016,19.8669371 178.28237,20.4152182 178.635083,20.8264352 C178.987797,21.2376523 179.435832,21.4432577 179.979201,21.4432577 C180.532104,21.4432577 180.980138,21.2425476 181.323319,20.8411215 Z M186.532967,22.7797063 L184.888568,22.7797063 L184.888568,15.6275033 L186.532967,15.6275033 L186.532967,22.7797063 Z M184.945764,13.894526 C184.736043,13.6791266 184.631184,13.4196722 184.631184,13.1161549 C184.631184,12.8126376 184.736043,12.5507354 184.945764,12.3304406 C185.155486,12.1101458 185.408101,12 185.703618,12 C186.008668,12 186.266049,12.1076981 186.475771,12.3230975 C186.685492,12.5384968 186.790352,12.8028467 186.790352,13.1161549 C186.790352,13.4196722 186.685492,13.6791266 186.475771,13.894526 C186.266049,14.1099254 186.008668,14.2176235 185.703618,14.2176235 C185.408101,14.2176235 185.155486,14.1099254 184.945764,13.894526 Z M190.541489,13.4392523 L190.541489,15.6275033 L191.985701,15.6275033 L191.985701,17.1401869 L190.541489,17.1401869 L190.541489,20.459279 C190.541489,20.7725872 190.612984,21.0002218 190.755976,21.1421896 C190.898968,21.2841574 191.122985,21.3551402 191.428035,21.3551402 C191.618691,21.3551402 191.809344,21.3355587 192,21.2963952 L192,22.706275 C191.752147,22.8139747 191.413738,22.8678238 190.984762,22.8678238 C190.336532,22.8678238 189.826535,22.6793521 189.454756,22.3024032 C189.082976,21.9254543 188.89709,21.4040977 188.89709,20.7383178 L188.89709,17.1401869 L187.610168,17.1401869 L187.610168,15.6275033 L187.967646,15.6275033 C188.32036,15.6275033 188.587274,15.5247006 188.768397,15.3190921 C188.949521,15.1134836 189.040081,14.8442384 189.040081,14.5113485 L189.040081,13.4392523 L190.541489,13.4392523 Z" id="CreateWithStackbit" fill="#FFFFFF" fill-rule="nonzero"></path>
            <g id="logo" transform="translate(25.000000, 8.000000)">
                <mask id="mask-3" fill="white">
                    <use xlink:href="#path-2"></use>
                </mask>
                <use id="a" fill="#FFFFFF" xlink:href="#path-2"></use>
            </g>
        </g>
    </g>
</svg>